<svg width="117" height="28" viewBox="0 0 117 28" fill="none" xmlns="http://www.w3.org/2000/svg">
<path d="M14.3032 26.9202C13.0167 27.6401 11.2635 28 9.04357 28C6.14256 28 3.91005 27.3174 2.34603 25.9521C0.78201 24.5621 0 22.4894 0 19.734V2.68085H8.55166V8.37766H12.7897V14.5213H8.55166V19.6596C8.55166 20.2801 8.71563 20.7642 9.04357 21.1117C9.37151 21.4592 9.80035 21.633 10.3301 21.633C11.0617 21.633 11.7049 21.4468 12.2599 21.0745L14.3032 26.9202Z" fill="#17181C"/>
<path d="M49.6684 7.26064V18.5053C49.6684 21.5337 48.735 23.8794 46.8683 25.5426C45.0016 27.1809 42.3907 28 39.0356 28C37.6229 28 36.349 27.8262 35.2138 27.4787C34.0786 27.1064 33.0948 26.4982 32.2624 25.6543C31.4047 26.4982 30.4208 27.1064 29.3109 27.4787C28.2009 27.8262 26.927 28 25.4891 28C22.1088 28 19.4853 27.1809 17.6186 25.5426C15.7771 23.9043 14.8563 21.5585 14.8563 18.5053V7.26064H23.408V17.9468C23.408 20.1809 24.1648 21.2979 25.6783 21.2979C27.2171 21.2979 27.9865 20.1809 27.9865 17.9468V7.26064H36.5382V17.9468C36.5382 20.1809 37.3076 21.2979 38.8464 21.2979C39.6284 21.2979 40.196 21.0372 40.5491 20.516C40.9275 19.9947 41.1167 19.1383 41.1167 17.9468V7.26064H49.6684Z" fill="#17181C"/>
<path d="M62.7844 28C60.4888 28 58.4203 27.5532 56.5788 26.6596C54.7625 25.7411 53.3372 24.4876 52.3029 22.8989C51.2687 21.2855 50.7515 19.461 50.7515 17.4255C50.7515 15.3901 51.2687 13.578 52.3029 11.9894C53.3372 10.3759 54.7625 9.12234 56.5788 8.22872C58.4203 7.33511 60.4888 6.8883 62.7844 6.8883C65.1052 6.8883 67.1737 7.33511 68.99 8.22872C70.8315 9.12234 72.2568 10.3759 73.2659 11.9894C74.3001 13.578 74.8173 15.3901 74.8173 17.4255C74.8173 19.461 74.3001 21.2855 73.2659 22.8989C72.2568 24.4876 70.8315 25.7411 68.99 26.6596C67.1737 27.5532 65.1052 28 62.7844 28ZM62.7844 21.4468C63.7682 21.4468 64.5755 21.0993 65.2061 20.4043C65.8368 19.6844 66.1521 18.6915 66.1521 17.4255C66.1521 16.1596 65.8368 15.1791 65.2061 14.484C64.5755 13.789 63.7682 13.4415 62.7844 13.4415C61.8006 13.4415 60.9933 13.789 60.3627 14.484C59.732 15.1791 59.4167 16.1596 59.4167 17.4255C59.4167 18.6915 59.732 19.6844 60.3627 20.4043C60.9933 21.0993 61.8006 21.4468 62.7844 21.4468Z" fill="#17181C"/>
<path d="M84.1157 9.45745C85.6292 7.74468 87.8617 6.8883 90.8132 6.8883V14.3351C90.1321 14.2358 89.5014 14.1862 88.9212 14.1862C85.995 14.1862 84.5319 15.6507 84.5319 18.5798V27.6277H75.9802V7.26064H84.1157V9.45745Z" fill="#17181C"/>
<path d="M101.637 21.3723L100.275 22.8245V27.6277H91.7234V0H100.275V13.1809L106.216 7.26064H116.319L107.767 16.0851L117 27.6277H106.67L101.637 21.3723Z" fill="#17181C"/>
</svg>
